<mxfile host="app.diagrams.net" modified="2024-06-10T04:37:19.928Z" agent="Mozilla/5.0 (Windows NT 10.0; Win64; x64) AppleWebKit/537.36 (KHTML, like Gecko) Chrome/125.0.0.0 Safari/537.36" etag="7Mw0fg2RAPEys_0pw_9Z" version="24.5.2" type="device">
  <diagram id="C5RBs43oDa-KdzZeNtuy" name="Page-1">
    <mxGraphModel dx="1134" dy="589" grid="1" gridSize="10" guides="1" tooltips="1" connect="1" arrows="1" fold="1" page="1" pageScale="1" pageWidth="827" pageHeight="1169" math="0" shadow="0">
      <root>
        <mxCell id="WIyWlLk6GJQsqaUBKTNV-0" />
        <mxCell id="WIyWlLk6GJQsqaUBKTNV-1" parent="WIyWlLk6GJQsqaUBKTNV-0" />
        <mxCell id="vfQhy-UZWvMGp9718YqG-2" style="edgeStyle=orthogonalEdgeStyle;rounded=0;orthogonalLoop=1;jettySize=auto;html=1;entryX=0.5;entryY=0;entryDx=0;entryDy=0;" edge="1" parent="WIyWlLk6GJQsqaUBKTNV-1" source="vfQhy-UZWvMGp9718YqG-0" target="vfQhy-UZWvMGp9718YqG-1">
          <mxGeometry relative="1" as="geometry" />
        </mxCell>
        <mxCell id="vfQhy-UZWvMGp9718YqG-0" value="&lt;b&gt;Bakta&lt;/b&gt;&lt;div&gt;&lt;b&gt;Annotations&lt;/b&gt;&lt;/div&gt;" style="shape=parallelogram;html=1;strokeWidth=2;perimeter=parallelogramPerimeter;whiteSpace=wrap;rounded=1;arcSize=12;size=0.23;fillStyle=solid;fillColor=#E6D0DE;" vertex="1" parent="WIyWlLk6GJQsqaUBKTNV-1">
          <mxGeometry x="199" y="89" width="150" height="50" as="geometry" />
        </mxCell>
        <mxCell id="vfQhy-UZWvMGp9718YqG-4" style="edgeStyle=orthogonalEdgeStyle;rounded=0;orthogonalLoop=1;jettySize=auto;html=1;exitX=0.5;exitY=1;exitDx=0;exitDy=0;" edge="1" parent="WIyWlLk6GJQsqaUBKTNV-1" source="vfQhy-UZWvMGp9718YqG-1" target="vfQhy-UZWvMGp9718YqG-3">
          <mxGeometry relative="1" as="geometry" />
        </mxCell>
        <mxCell id="vfQhy-UZWvMGp9718YqG-1" value="&lt;b&gt;Removal of COG misannotations&lt;/b&gt;" style="rounded=1;whiteSpace=wrap;html=1;absoluteArcSize=1;arcSize=14;strokeWidth=2;fillColor=#B9E0A5;" vertex="1" parent="WIyWlLk6GJQsqaUBKTNV-1">
          <mxGeometry x="199" y="169" width="150" height="50" as="geometry" />
        </mxCell>
        <mxCell id="vfQhy-UZWvMGp9718YqG-6" style="edgeStyle=orthogonalEdgeStyle;rounded=0;orthogonalLoop=1;jettySize=auto;html=1;exitX=0.5;exitY=1;exitDx=0;exitDy=0;" edge="1" parent="WIyWlLk6GJQsqaUBKTNV-1" source="vfQhy-UZWvMGp9718YqG-3" target="vfQhy-UZWvMGp9718YqG-5">
          <mxGeometry relative="1" as="geometry" />
        </mxCell>
        <mxCell id="vfQhy-UZWvMGp9718YqG-13" value="" style="edgeStyle=orthogonalEdgeStyle;rounded=0;orthogonalLoop=1;jettySize=auto;html=1;" edge="1" parent="WIyWlLk6GJQsqaUBKTNV-1" source="vfQhy-UZWvMGp9718YqG-3" target="vfQhy-UZWvMGp9718YqG-7">
          <mxGeometry relative="1" as="geometry" />
        </mxCell>
        <mxCell id="vfQhy-UZWvMGp9718YqG-3" value="&lt;b&gt;Hmmer TPR and Ankyrin identification&lt;/b&gt;" style="rounded=1;whiteSpace=wrap;html=1;absoluteArcSize=1;arcSize=14;strokeWidth=2;fillColor=#B9E0A5;" vertex="1" parent="WIyWlLk6GJQsqaUBKTNV-1">
          <mxGeometry x="199" y="249" width="150" height="50" as="geometry" />
        </mxCell>
        <mxCell id="vfQhy-UZWvMGp9718YqG-10" style="edgeStyle=orthogonalEdgeStyle;rounded=0;orthogonalLoop=1;jettySize=auto;html=1;exitX=0.5;exitY=1;exitDx=0;exitDy=0;entryX=0.5;entryY=0;entryDx=0;entryDy=0;" edge="1" parent="WIyWlLk6GJQsqaUBKTNV-1" source="vfQhy-UZWvMGp9718YqG-5" target="vfQhy-UZWvMGp9718YqG-7">
          <mxGeometry relative="1" as="geometry" />
        </mxCell>
        <mxCell id="vfQhy-UZWvMGp9718YqG-5" value="&lt;b&gt;Specific Ankyrin Identification&lt;/b&gt;" style="rounded=1;whiteSpace=wrap;html=1;absoluteArcSize=1;arcSize=14;strokeWidth=2;fillColor=#B9E0A5;" vertex="1" parent="WIyWlLk6GJQsqaUBKTNV-1">
          <mxGeometry x="199" y="329" width="150" height="40" as="geometry" />
        </mxCell>
        <mxCell id="vfQhy-UZWvMGp9718YqG-9" style="edgeStyle=orthogonalEdgeStyle;rounded=0;orthogonalLoop=1;jettySize=auto;html=1;exitX=0.5;exitY=1;exitDx=0;exitDy=0;entryX=0.5;entryY=0;entryDx=0;entryDy=0;" edge="1" parent="WIyWlLk6GJQsqaUBKTNV-1" source="vfQhy-UZWvMGp9718YqG-7" target="vfQhy-UZWvMGp9718YqG-8">
          <mxGeometry relative="1" as="geometry" />
        </mxCell>
        <mxCell id="vfQhy-UZWvMGp9718YqG-7" value="&lt;b&gt;Identification of complete trbC, integrase and tra genes&lt;/b&gt;" style="rounded=1;whiteSpace=wrap;html=1;absoluteArcSize=1;arcSize=14;strokeWidth=2;fillColor=#B9E0A5;" vertex="1" parent="WIyWlLk6GJQsqaUBKTNV-1">
          <mxGeometry x="199" y="399" width="150" height="80" as="geometry" />
        </mxCell>
        <mxCell id="vfQhy-UZWvMGp9718YqG-12" style="edgeStyle=orthogonalEdgeStyle;rounded=0;orthogonalLoop=1;jettySize=auto;html=1;exitX=0.5;exitY=1;exitDx=0;exitDy=0;entryX=0.5;entryY=0;entryDx=0;entryDy=0;" edge="1" parent="WIyWlLk6GJQsqaUBKTNV-1" source="vfQhy-UZWvMGp9718YqG-8" target="vfQhy-UZWvMGp9718YqG-11">
          <mxGeometry relative="1" as="geometry" />
        </mxCell>
        <mxCell id="vfQhy-UZWvMGp9718YqG-8" value="&lt;b&gt;Identifying RAGE derived regions and complete RAGE (bed)&lt;/b&gt;" style="rounded=1;whiteSpace=wrap;html=1;absoluteArcSize=1;arcSize=14;strokeWidth=2;fillColor=#FFE599;" vertex="1" parent="WIyWlLk6GJQsqaUBKTNV-1">
          <mxGeometry x="199" y="504" width="150" height="65.5" as="geometry" />
        </mxCell>
        <mxCell id="vfQhy-UZWvMGp9718YqG-11" value="&lt;b&gt;Genome summary stats (txt)&lt;/b&gt;" style="rounded=1;whiteSpace=wrap;html=1;absoluteArcSize=1;arcSize=14;strokeWidth=2;fillColor=#D4E1F5;" vertex="1" parent="WIyWlLk6GJQsqaUBKTNV-1">
          <mxGeometry x="199" y="599" width="150" height="40" as="geometry" />
        </mxCell>
        <mxCell id="vfQhy-UZWvMGp9718YqG-14" value="" style="strokeWidth=2;html=1;shape=mxgraph.flowchart.annotation_2;align=left;labelPosition=right;pointerEvents=1;" vertex="1" parent="WIyWlLk6GJQsqaUBKTNV-1">
          <mxGeometry x="149" y="170" width="30" height="310" as="geometry" />
        </mxCell>
        <mxCell id="vfQhy-UZWvMGp9718YqG-15" value="&lt;b&gt;Post-bakta genbank processing&lt;/b&gt;" style="text;html=1;align=center;verticalAlign=middle;whiteSpace=wrap;rounded=0;" vertex="1" parent="WIyWlLk6GJQsqaUBKTNV-1">
          <mxGeometry x="80" y="310" width="60" height="30" as="geometry" />
        </mxCell>
        <mxCell id="vfQhy-UZWvMGp9718YqG-16" value="" style="strokeWidth=2;html=1;shape=mxgraph.flowchart.annotation_2;align=left;labelPosition=right;pointerEvents=1;" vertex="1" parent="WIyWlLk6GJQsqaUBKTNV-1">
          <mxGeometry x="149" y="504" width="30" height="136" as="geometry" />
        </mxCell>
        <mxCell id="vfQhy-UZWvMGp9718YqG-17" value="&lt;b&gt;Genome stats generation&lt;/b&gt;" style="text;html=1;align=center;verticalAlign=middle;whiteSpace=wrap;rounded=0;" vertex="1" parent="WIyWlLk6GJQsqaUBKTNV-1">
          <mxGeometry x="80" y="555" width="60" height="30" as="geometry" />
        </mxCell>
      </root>
    </mxGraphModel>
  </diagram>
</mxfile>
